<mxfile host="app.diagrams.net" agent="Mozilla/5.0 (Windows NT 10.0; Win64; x64) AppleWebKit/537.36 (KHTML, like Gecko) Chrome/128.0.0.0 Safari/537.36" version="24.7.7">
  <diagram name="Page-1" id="e7e014a7-5840-1c2e-5031-d8a46d1fe8dd">
    <mxGraphModel dx="362" dy="238" grid="1" gridSize="10" guides="1" tooltips="1" connect="1" arrows="1" fold="1" page="1" pageScale="1" pageWidth="1169" pageHeight="826" background="none" math="0" shadow="0">
      <root>
        <mxCell id="0" />
        <mxCell id="1" parent="0" />
        <mxCell id="IfubPos9lp6Sgl9D3y1j-38" value="Actor" style="shape=umlActor;verticalLabelPosition=bottom;verticalAlign=top;html=1;outlineConnect=0;" vertex="1" parent="1">
          <mxGeometry x="820" y="700" width="30" height="60" as="geometry" />
        </mxCell>
        <mxCell id="IfubPos9lp6Sgl9D3y1j-39" value="Login" style="text;html=1;align=center;verticalAlign=middle;whiteSpace=wrap;rounded=0;fillColor=#f5f5f5;fontColor=#333333;strokeColor=#666666;" vertex="1" parent="1">
          <mxGeometry x="910" y="715" width="60" height="30" as="geometry" />
        </mxCell>
        <mxCell id="IfubPos9lp6Sgl9D3y1j-40" value="Register" style="text;html=1;align=center;verticalAlign=middle;whiteSpace=wrap;rounded=0;fillColor=#f5f5f5;fontColor=#333333;strokeColor=#666666;" vertex="1" parent="1">
          <mxGeometry x="1010" y="715" width="60" height="30" as="geometry" />
        </mxCell>
        <mxCell id="IfubPos9lp6Sgl9D3y1j-41" value="Homepage" style="text;html=1;align=center;verticalAlign=middle;whiteSpace=wrap;rounded=0;fillColor=#f5f5f5;fontColor=#333333;strokeColor=#666666;" vertex="1" parent="1">
          <mxGeometry x="1000" y="790" width="70" height="30" as="geometry" />
        </mxCell>
        <mxCell id="IfubPos9lp6Sgl9D3y1j-42" value="Navbar" style="text;html=1;align=center;verticalAlign=middle;whiteSpace=wrap;rounded=0;fillColor=#f5f5f5;fontColor=#333333;strokeColor=#666666;" vertex="1" parent="1">
          <mxGeometry x="950" y="850" width="60" height="30" as="geometry" />
        </mxCell>
        <mxCell id="IfubPos9lp6Sgl9D3y1j-43" style="edgeStyle=orthogonalEdgeStyle;rounded=0;orthogonalLoop=1;jettySize=auto;html=1;entryX=0.5;entryY=0;entryDx=0;entryDy=0;" edge="1" parent="1">
          <mxGeometry relative="1" as="geometry">
            <mxPoint x="1036" y="820" as="sourcePoint" />
            <mxPoint x="1035.99" y="1010" as="targetPoint" />
            <Array as="points">
              <mxPoint x="1035.99" y="820" />
            </Array>
          </mxGeometry>
        </mxCell>
        <mxCell id="IfubPos9lp6Sgl9D3y1j-44" value="Content" style="text;html=1;align=center;verticalAlign=middle;whiteSpace=wrap;rounded=0;fillColor=#f5f5f5;fontColor=#333333;strokeColor=#666666;" vertex="1" parent="1">
          <mxGeometry x="1070" y="850" width="60" height="30" as="geometry" />
        </mxCell>
        <mxCell id="IfubPos9lp6Sgl9D3y1j-45" value="" style="endArrow=classic;html=1;rounded=0;entryX=0;entryY=0.5;entryDx=0;entryDy=0;" edge="1" parent="1" source="IfubPos9lp6Sgl9D3y1j-38" target="IfubPos9lp6Sgl9D3y1j-39">
          <mxGeometry width="50" height="50" relative="1" as="geometry">
            <mxPoint x="970" y="760" as="sourcePoint" />
            <mxPoint x="1020" y="710" as="targetPoint" />
          </mxGeometry>
        </mxCell>
        <mxCell id="IfubPos9lp6Sgl9D3y1j-46" value="" style="endArrow=classic;html=1;rounded=0;exitX=1;exitY=0.5;exitDx=0;exitDy=0;entryX=0;entryY=0.5;entryDx=0;entryDy=0;dashed=1;" edge="1" parent="1" source="IfubPos9lp6Sgl9D3y1j-39" target="IfubPos9lp6Sgl9D3y1j-40">
          <mxGeometry width="50" height="50" relative="1" as="geometry">
            <mxPoint x="950" y="735" as="sourcePoint" />
            <mxPoint x="1000" y="745" as="targetPoint" />
          </mxGeometry>
        </mxCell>
        <mxCell id="IfubPos9lp6Sgl9D3y1j-47" value="" style="endArrow=classic;html=1;rounded=0;exitX=0.5;exitY=1;exitDx=0;exitDy=0;dashed=1;" edge="1" parent="1" source="IfubPos9lp6Sgl9D3y1j-39" target="IfubPos9lp6Sgl9D3y1j-41">
          <mxGeometry width="50" height="50" relative="1" as="geometry">
            <mxPoint x="980" y="740" as="sourcePoint" />
            <mxPoint x="1000" y="740" as="targetPoint" />
            <Array as="points">
              <mxPoint x="940" y="760" />
              <mxPoint x="1035" y="760" />
            </Array>
          </mxGeometry>
        </mxCell>
        <mxCell id="IfubPos9lp6Sgl9D3y1j-48" value="" style="endArrow=classic;html=1;rounded=0;exitX=0;exitY=0.5;exitDx=0;exitDy=0;entryX=0.5;entryY=0;entryDx=0;entryDy=0;" edge="1" parent="1" source="IfubPos9lp6Sgl9D3y1j-41" target="IfubPos9lp6Sgl9D3y1j-42">
          <mxGeometry width="50" height="50" relative="1" as="geometry">
            <mxPoint x="1030" y="740" as="sourcePoint" />
            <mxPoint x="1050" y="740" as="targetPoint" />
            <Array as="points">
              <mxPoint x="980" y="805" />
            </Array>
          </mxGeometry>
        </mxCell>
        <mxCell id="IfubPos9lp6Sgl9D3y1j-49" value="" style="endArrow=classic;html=1;rounded=0;exitX=1;exitY=0.5;exitDx=0;exitDy=0;entryX=0.5;entryY=0;entryDx=0;entryDy=0;" edge="1" parent="1" source="IfubPos9lp6Sgl9D3y1j-41" target="IfubPos9lp6Sgl9D3y1j-44">
          <mxGeometry width="50" height="50" relative="1" as="geometry">
            <mxPoint x="1030" y="750" as="sourcePoint" />
            <mxPoint x="1050" y="750" as="targetPoint" />
            <Array as="points">
              <mxPoint x="1100" y="805" />
            </Array>
          </mxGeometry>
        </mxCell>
        <mxCell id="IfubPos9lp6Sgl9D3y1j-53" value="About" style="text;html=1;align=center;verticalAlign=middle;whiteSpace=wrap;rounded=0;fillColor=#f5f5f5;fontColor=#333333;strokeColor=#666666;" vertex="1" parent="1">
          <mxGeometry x="1010" y="1010" width="60" height="30" as="geometry" />
        </mxCell>
        <mxCell id="IfubPos9lp6Sgl9D3y1j-55" value="Contact" style="text;html=1;align=center;verticalAlign=middle;whiteSpace=wrap;rounded=0;fillColor=#f5f5f5;fontColor=#333333;strokeColor=#666666;" vertex="1" parent="1">
          <mxGeometry x="1130" y="980" width="60" height="30" as="geometry" />
        </mxCell>
        <mxCell id="IfubPos9lp6Sgl9D3y1j-60" value="&lt;span style=&quot;font-size: 6px;&quot;&gt;&amp;lt;include&amp;gt;&lt;/span&gt;" style="text;html=1;align=center;verticalAlign=middle;whiteSpace=wrap;rounded=0;" vertex="1" parent="1">
          <mxGeometry x="971" y="715" width="30" height="10" as="geometry" />
        </mxCell>
        <mxCell id="IfubPos9lp6Sgl9D3y1j-61" value="&lt;font style=&quot;font-size: 6px;&quot;&gt;&amp;lt;exclude&amp;gt;&lt;/font&gt;" style="text;html=1;align=center;verticalAlign=middle;whiteSpace=wrap;rounded=0;" vertex="1" parent="1">
          <mxGeometry x="970" y="760" width="30" height="10" as="geometry" />
        </mxCell>
        <mxCell id="IfubPos9lp6Sgl9D3y1j-62" value="&lt;font style=&quot;font-size: 6px;&quot;&gt;&amp;lt;include&amp;gt;&lt;/font&gt;" style="text;html=1;align=center;verticalAlign=middle;whiteSpace=wrap;rounded=0;rotation=-90;" vertex="1" parent="1">
          <mxGeometry x="955" y="820" width="30" height="10" as="geometry" />
        </mxCell>
        <mxCell id="IfubPos9lp6Sgl9D3y1j-63" value="&lt;font style=&quot;font-size: 6px;&quot;&gt;&amp;lt;include&amp;gt;&lt;/font&gt;" style="text;html=1;align=center;verticalAlign=middle;whiteSpace=wrap;rounded=0;rotation=-90;" vertex="1" parent="1">
          <mxGeometry x="1075" y="820" width="30" height="10" as="geometry" />
        </mxCell>
        <mxCell id="IfubPos9lp6Sgl9D3y1j-65" style="edgeStyle=orthogonalEdgeStyle;rounded=0;orthogonalLoop=1;jettySize=auto;html=1;entryX=0.5;entryY=0;entryDx=0;entryDy=0;exitX=0.5;exitY=1;exitDx=0;exitDy=0;" edge="1" parent="1" source="IfubPos9lp6Sgl9D3y1j-41" target="IfubPos9lp6Sgl9D3y1j-55">
          <mxGeometry relative="1" as="geometry">
            <mxPoint x="1160" y="980" as="targetPoint" />
            <Array as="points">
              <mxPoint x="1035" y="865" />
              <mxPoint x="1050" y="865" />
              <mxPoint x="1050" y="930" />
              <mxPoint x="1160" y="930" />
            </Array>
          </mxGeometry>
        </mxCell>
        <mxCell id="IfubPos9lp6Sgl9D3y1j-66" value="&lt;font style=&quot;font-size: 6px;&quot;&gt;&amp;lt;include&amp;gt;&lt;/font&gt;" style="text;html=1;align=center;verticalAlign=middle;whiteSpace=wrap;rounded=0;rotation=-90;" vertex="1" parent="1">
          <mxGeometry x="1016" y="972" width="30" height="10" as="geometry" />
        </mxCell>
        <mxCell id="IfubPos9lp6Sgl9D3y1j-67" value="&lt;font style=&quot;font-size: 6px;&quot;&gt;&amp;lt;include&amp;gt;&lt;/font&gt;" style="text;html=1;align=center;verticalAlign=middle;whiteSpace=wrap;rounded=0;rotation=-90;" vertex="1" parent="1">
          <mxGeometry x="1136" y="954" width="30" height="10" as="geometry" />
        </mxCell>
      </root>
    </mxGraphModel>
  </diagram>
</mxfile>
